<?xml version="1.0" standalone="no"?>
<!DOCTYPE svg PUBLIC "-//W3C//DTD SVG 20010904//EN"
 "http://www.w3.org/TR/2001/REC-SVG-20010904/DTD/svg10.dtd">
<svg version="1.0" xmlns="http://www.w3.org/2000/svg"
 width="280.000000pt" height="280.000000pt" viewBox="0 0 280.000000 280.000000"
 preserveAspectRatio="xMidYMid meet">

<g transform="translate(0.000000,280.000000) scale(0.100000,-0.100000)"
fill="#000000" stroke="none">
<path d="M0 2228 l0 -571 28 24 27 24 -28 -31 -27 -30 0 -822 0 -822 208 1
207 0 80 32 c91 37 212 113 221 141 3 10 17 34 29 53 13 19 21 41 18 49 -13
35 130 129 226 147 27 6 32 4 27 -8 -6 -18 30 -20 81 -6 22 6 33 6 36 -2 2 -7
17 -2 40 12 20 12 37 18 37 12 0 -8 10 -6 29 3 16 9 31 12 35 9 3 -4 6 -1 6 6
0 8 7 10 20 6 11 -3 25 -3 32 1 7 4 22 9 35 10 21 2 108 58 167 108 27 22 28
26 15 43 -8 10 9 -2 36 -26 54 -47 85 -66 85 -54 0 5 -9 14 -21 21 -33 21 -15
26 23 6 l33 -17 -25 28 -25 28 28 -18 c15 -9 27 -13 27 -7 0 6 -5 14 -10 17
-6 4 -20 25 -31 47 l-20 40 55 55 c31 31 56 61 56 67 0 6 16 -23 35 -63 20
-40 45 -87 57 -104 19 -27 22 -43 22 -166 0 -130 -1 -138 -27 -182 -15 -25
-27 -55 -27 -66 0 -10 -9 -39 -21 -62 -11 -24 -23 -68 -26 -97 -5 -50 -7 -53
-37 -57 -19 -2 -12 -4 17 -4 48 0 48 1 46 32 -4 36 19 97 32 89 5 -3 8 -32 6
-65 -4 -51 -2 -59 13 -59 13 0 19 11 23 42 2 24 11 57 18 73 l13 30 4 -32 c2
-18 7 -33 13 -33 12 0 12 -37 -1 -61 -9 -16 -7 -19 14 -19 21 0 25 6 36 65 13
71 25 89 33 50 2 -14 0 -28 -4 -31 -5 -3 -9 -15 -9 -27 0 -17 2 -19 9 -7 6 8
7 18 5 22 -3 4 -1 8 5 8 5 0 13 -5 16 -10 4 -6 18 1 34 17 30 31 53 50 94 76
15 10 25 22 22 27 -3 5 13 26 35 46 83 75 97 90 114 116 14 23 24 28 57 28 35
0 40 3 35 17 -5 13 0 11 20 -7 21 -19 26 -21 21 -7 -5 13 -3 16 5 10 7 -4 29
-6 48 -4 19 2 32 -1 28 -5 -13 -13 13 -34 43 -34 21 0 32 7 43 29 9 16 27 43
41 60 23 26 25 35 17 58 -7 18 -11 22 -11 10 -1 -15 -4 -16 -23 -5 -24 13 -32
14 -140 21 l-68 5 -1 -32 -1 -31 -9 30 c-6 17 -13 113 -16 215 l-6 185 34 14
c19 7 40 13 46 12 18 -3 83 51 84 69 0 8 9 -5 20 -29 24 -54 30 -51 19 9 -9
47 0 70 66 170 30 47 35 86 10 82 -17 -3 -17 -1 3 27 12 17 26 33 32 36 5 4 7
10 4 15 -3 5 -1 11 5 15 7 4 6 13 -1 28 -7 13 2 7 20 -13 l31 -35 -6 50 c-3
32 -2 45 4 37 16 -24 22 12 22 139 0 101 -2 118 -15 113 -8 -4 -15 -14 -15
-23 0 -14 -2 -14 -10 -1 -5 8 -10 40 -10 70 0 46 -15 156 -35 260 -4 21 2 17
40 -25 l45 -49 0 74 c0 85 -29 220 -61 283 -28 55 -140 219 -194 282 -23 28
-67 73 -96 101 -99 93 -174 168 -139 138 19 -16 39 -35 46 -43 6 -8 16 -11 24
-6 9 6 11 4 5 -5 -6 -10 -4 -12 9 -7 11 4 15 3 11 -4 -4 -5 6 -22 22 -36 15
-14 38 -35 51 -46 l23 -21 -4 39 c-3 32 -9 40 -30 46 -14 4 -29 4 -33 0 -4 -3
-4 0 0 6 4 8 -2 17 -18 25 -14 6 -26 15 -26 19 0 5 -6 6 -13 3 -8 -3 -20 2
-27 11 -11 13 -11 18 -1 25 8 4 11 16 7 27 -5 16 -15 20 -46 20 -26 0 -37 -3
-33 -11 4 -6 0 -5 -9 2 -25 20 -217 15 -243 -7 -19 -15 -19 -15 -5 3 14 18 13
19 -5 14 -11 -3 -29 -9 -40 -13 -16 -5 -17 -5 -5 4 11 8 -119 11 -466 11
l-480 0 -1 -52 c0 -29 2 -47 4 -40 4 10 8 10 19 1 11 -9 14 -8 14 8 0 10 7 28
15 39 13 17 13 16 4 -18 -5 -20 -9 -40 -8 -45 4 -21 -2 -34 -13 -27 -7 4 -8 3
-4 -5 6 -9 11 -9 21 -1 7 6 -15 -40 -51 -101 -65 -114 -97 -188 -113 -259 -8
-35 -7 -39 13 -42 13 -2 22 -11 24 -25 2 -14 8 -20 18 -16 8 3 14 0 14 -6 0
-17 -67 -4 -106 20 -50 30 -95 93 -168 234 -37 72 -78 142 -90 156 -32 37 -65
54 -79 40 -10 -10 -28 -180 -20 -193 8 -15 -15 -8 -28 9 -10 11 -10 14 -1 9 6
-4 12 -3 12 2 0 6 -21 24 -47 41 -27 16 -68 54 -93 83 -29 34 -36 47 -20 36
54 -38 66 -41 38 -11 -16 16 -28 32 -28 36 0 7 94 -47 121 -70 14 -12 17 -11
23 3 4 11 -6 32 -32 63 -21 25 -42 53 -47 60 -12 21 47 -23 64 -48 8 -11 18
-18 23 -15 4 3 8 0 8 -6 0 -6 4 -9 9 -5 6 3 9 23 7 45 -2 22 1 37 6 34 4 -3 7
-8 5 -12 -2 -4 4 -15 15 -24 10 -10 18 -13 18 -6 0 6 10 3 22 -8 12 -10 18
-13 13 -5 -6 10 -4 12 4 7 7 -5 10 -14 7 -22 -3 -8 0 -11 10 -7 16 6 18 19 5
27 -8 5 -23 46 -16 46 2 0 15 -19 28 -43 14 -24 32 -44 39 -44 18 0 15 59 -4
112 l-15 40 -332 3 -331 2 0 -572z m1907 536 c-3 -3 -12 -4 -19 -1 -8 3 -5 6
6 6 11 1 17 -2 13 -5z m-745 -42 c3 -9 1 -26 -4 -37 -8 -19 -8 -19 -4 1 7 42
-10 50 -39 18 l-26 -29 22 33 c25 36 44 41 51 14z m638 -6 c0 -2 -37 -36 -82
-75 l-82 -72 -51 6 c-41 5 -56 2 -85 -16 -19 -13 -45 -22 -58 -20 -13 1 -42
-7 -65 -19 l-42 -21 30 27 c92 81 115 106 110 114 -7 11 8 14 18 3 4 -4 -5
-20 -20 -37 -16 -17 -21 -26 -13 -20 8 6 35 12 60 13 24 1 49 6 55 11 5 5 29
7 52 5 38 -3 47 2 105 50 65 56 68 58 68 51z m-393 -72 c-3 -3 -12 -4 -19 -1
-8 3 -5 6 6 6 11 1 17 -2 13 -5z m46 -1 c-7 -2 -19 -2 -25 0 -7 3 -2 5 12 5
14 0 19 -2 13 -5z m-283 -23 c0 -6 17 -8 43 -5 41 5 38 2 -15 -15 -23 -7 -30
-5 -38 11 -7 13 -7 19 0 19 5 0 10 -5 10 -10z m515 -70 c-10 -11 -22 -20 -28
-20 -5 0 1 9 14 20 31 25 37 25 14 0z m-372 -50 c-10 -11 -19 -20 -21 -20 -1
0 2 9 8 20 6 11 15 20 20 20 6 0 2 -9 -7 -20z m-923 -44 c41 -13 83 -27 93
-31 12 -5 17 -2 17 10 0 9 5 13 10 10 22 -14 3 -335 -24 -397 -8 -18 -15 -27
-15 -20 -1 7 4 22 9 33 15 26 4 40 -23 30 -48 -18 -79 -22 -72 -10 5 7 1 9
-11 5 -48 -14 -103 -23 -99 -15 3 4 -18 6 -47 3 -49 -5 -52 -4 -34 10 20 16
19 16 -1 16 -11 0 -23 6 -26 14 -6 14 37 26 173 46 114 17 130 21 130 31 0 7
-45 8 -122 5 -120 -5 -122 -5 -63 8 l60 13 -46 2 c-26 0 -61 7 -79 15 l-33 13
49 8 49 8 -55 10 c-53 9 -80 21 -80 37 0 4 73 5 163 3 l162 -5 -35 29 c-19 15
-48 35 -65 44 -30 16 -39 38 -21 51 6 4 -2 12 -17 19 -15 7 -27 16 -27 21 0
10 -7 12 80 -16z m1536 -24 c-45 -89 -89 -116 -162 -96 -18 5 -11 14 50 75 58
56 77 69 104 69 l32 0 -24 -48z m-371 -20 c-6 -4 -27 -21 -48 -36 -22 -16 -49
-51 -67 -87 -17 -32 -32 -59 -35 -59 -6 0 9 40 31 81 8 17 14 33 11 35 -9 9
-69 -128 -63 -143 6 -14 8 -14 22 3 13 16 15 16 10 2 -3 -10 -1 -20 4 -23 6
-4 10 0 10 7 1 13 34 58 43 58 3 0 7 -12 10 -26 7 -36 -57 -134 -83 -127 -12
3 -28 -5 -44 -21 -22 -24 -30 -27 -83 -24 l-58 3 2 33 c1 30 0 32 -13 15 -14
-17 -14 -17 -12 2 2 12 -2 19 -9 17 -7 -1 -13 6 -13 17 0 24 30 32 101 24 45
-4 59 -10 67 -27 9 -17 10 -15 6 14 -4 25 2 48 20 80 13 25 33 63 44 85 26 53
62 85 103 92 19 3 36 7 38 9 2 2 7 4 10 4 3 0 1 -4 -4 -8z m-549 -27 c-21 -16
-32 -13 -21 4 3 6 14 11 23 11 15 -1 15 -2 -2 -15z m574 11 c0 -2 -18 -16 -40
-31 -22 -15 -40 -33 -40 -38 0 -7 4 -7 12 1 17 17 33 15 19 -2 -9 -11 -7 -15
11 -20 19 -5 20 -8 8 -16 -10 -6 -16 -6 -18 0 -2 6 -9 7 -14 4 -6 -4 -8 -2 -5
3 4 6 0 13 -8 17 -13 4 -29 -9 -30 -24 0 -3 -10 -19 -23 -35 l-22 -30 11 30
c23 64 53 105 93 125 43 21 46 22 46 16z m-20 -41 c-7 -9 -15 -13 -19 -10 -3
3 1 10 9 15 21 14 24 12 10 -5z m30 -14 c0 -6 -5 -13 -10 -16 -6 -4 -8 -11 -5
-16 3 -5 -1 -6 -9 -3 -19 7 -20 16 -4 32 14 14 28 16 28 3z m-337 -92 c7 -27
-6 -24 -19 5 -9 19 -9 23 1 19 7 -2 15 -13 18 -24z m61 25 c17 -6 21 -39 9
-69 -5 -15 -8 -15 -25 6 -11 13 -16 18 -12 10 4 -8 3 -12 -3 -8 -11 7 -5 67 7
67 5 0 15 -3 24 -6z m-210 -45 c24 -41 11 -53 -27 -26 -41 29 -58 50 -46 58
20 12 56 -4 73 -32z m109 -6 c-7 -2 -19 -2 -25 0 -7 3 -2 5 12 5 14 0 19 -2
13 -5z m343 -211 c5 -35 2 -49 -19 -81 -18 -27 -26 -54 -28 -94 -1 -31 0 -60
4 -64 4 -3 7 -15 7 -25 0 -10 5 -18 11 -18 8 0 9 -19 5 -62 -8 -65 -21 -92
-39 -81 -5 3 -7 1 -3 -5 10 -16 -13 -25 -29 -12 -19 16 -35 74 -40 152 -8 103
-10 108 -42 128 -39 24 -49 39 -33 53 7 7 10 8 7 2 -3 -5 5 -11 16 -12 12 0
29 -3 37 -5 8 -1 16 1 17 6 1 5 7 12 15 17 14 9 14 9 -68 9 -22 0 -48 6 -58
13 -17 12 -17 14 1 36 l19 23 38 -26 c47 -31 50 -32 77 -5 16 16 20 29 16 54
-5 31 -3 35 31 48 43 17 48 13 58 -51z m191 46 c-3 -8 -6 -5 -6 6 -1 11 2 17
5 13 3 -3 4 -12 1 -19z m133 6 c32 -13 32 -14 5 -8 -16 4 -50 10 -75 14 l-45
7 40 1 c22 0 56 -6 75 -14z m-463 -9 c-7 -7 -18 -10 -26 -7 -10 4 -12 1 -7 -7
5 -7 17 -11 27 -8 11 3 19 1 19 -4 0 -14 -58 -11 -63 4 -7 22 3 32 32 33 23 1
26 -2 18 -11z m776 1 c22 -17 14 -37 -25 -60 -17 -11 -39 -27 -49 -37 -11 -11
-19 -15 -19 -10 0 5 23 26 52 46 l52 38 -23 18 c-26 21 -16 26 12 5z m-246
-12 c-3 -3 -12 -4 -19 -1 -8 3 -5 6 6 6 11 1 17 -2 13 -5z m-210 -26 c-3 -8
-6 -5 -6 6 -1 11 2 17 5 13 3 -3 4 -12 1 -19z m253 -13 c13 -14 21 -25 18 -25
-2 0 -15 11 -28 25 -13 14 -21 25 -18 25 2 0 15 -11 28 -25z m107 -27 c-3 -7
-5 -2 -5 12 0 14 2 19 5 13 2 -7 2 -19 0 -25z m-693 6 c5 -14 4 -15 -9 -4 -17
14 -19 20 -6 20 5 0 12 -7 15 -16z m-994 -68 c0 -2 -8 -10 -17 -17 -16 -13
-17 -12 -4 4 13 16 21 21 21 13z m620 -16 c-8 -5 -17 -7 -19 -4 -3 3 1 9 9 14
8 5 17 7 19 4 3 -3 -1 -9 -9 -14z m667 -62 c-2 -18 -4 -6 -4 27 0 33 2 48 4
33 2 -15 2 -42 0 -60z m-1340 34 c-9 -10 -36 -28 -59 -40 -24 -13 -35 -17 -24
-10 10 7 35 25 55 40 43 32 50 34 28 10z m912 -12 c28 -15 40 -29 43 -49 6
-40 -8 -84 -34 -108 -22 -19 -23 -19 -40 -1 -20 20 -10 25 11 6 10 -11 11 -10
6 5 -4 9 -10 17 -14 17 -4 0 -13 12 -19 26 -7 14 -17 22 -23 19 -11 -8 -49 22
-49 38 0 6 9 0 20 -13 11 -13 20 -19 20 -15 0 5 -7 16 -16 26 -13 14 -20 16
-40 7 -13 -6 -21 -15 -18 -20 3 -4 10 -6 15 -3 5 3 6 -2 2 -11 -4 -12 -3 -15
5 -10 8 5 10 2 6 -8 -4 -11 2 -19 17 -25 l24 -10 -25 0 c-21 -1 -29 6 -39 35
-13 37 -23 38 -28 4 -2 -11 2 -20 9 -20 6 0 9 -3 5 -6 -9 -10 -67 -15 -67 -6
0 13 92 98 130 121 43 26 50 26 99 1z m-1040 -64 c-10 -9 -109 -56 -109 -51 0
6 91 54 104 55 5 0 7 -2 5 -4z m-119 -60 c0 -2 -12 -11 -27 -20 l-28 -17 24
20 c23 21 31 25 31 17z m1641 -43 c10 -11 10 -14 2 -9 -29 17 -10 -14 33 -53
42 -39 64 -76 64 -104 0 -7 -4 -6 -10 3 -8 13 -10 12 -10 -2 0 -10 6 -18 14
-18 17 0 26 -27 61 -170 16 -69 21 -108 15 -114 -6 -6 -10 -8 -10 -5 0 2 -7
38 -16 79 -9 41 -17 83 -20 94 -8 39 -16 29 -10 -12 3 -24 7 -46 7 -50 5 -30
-3 -84 -10 -76 -5 5 -25 63 -46 129 -20 66 -50 143 -66 172 -25 46 -28 57 -20
97 4 25 6 48 3 51 -3 3 -3 5 0 5 3 0 12 -8 19 -17z m-1051 -18 c0 -9 -9 -15
-22 -14 -17 1 -19 2 -5 6 9 2 17 9 17 14 0 5 2 9 5 9 3 0 5 -7 5 -15z m1357
-52 c-3 -10 -5 -4 -5 12 0 17 2 24 5 18 2 -7 2 -21 0 -30z m-37 7 c0 -5 -7
-10 -15 -10 -8 0 -15 5 -15 10 0 6 7 10 15 10 8 0 15 -4 15 -10z m615 -103
c13 -32 13 -36 0 -31 -9 4 -18 -2 -24 -17 l-10 -24 0 26 c-1 30 10 91 15 86 2
-2 10 -20 19 -40z m132 -9 c-2 -13 -4 -5 -4 17 -1 22 1 32 4 23 2 -10 2 -28 0
-40z m-720 -20 c-2 -13 -4 -3 -4 22 0 25 2 35 4 23 2 -13 2 -33 0 -45z m-652
-14 c12 -12 13 -19 5 -24 -8 -5 -6 -9 6 -14 9 -3 14 -9 11 -12 -9 -9 -48 16
-42 27 4 5 2 9 -2 9 -5 0 -18 7 -29 15 -18 14 -18 14 8 15 15 0 34 -7 43 -16z
m1378 -24 c-7 -28 -13 -25 -13 6 0 14 4 23 9 20 5 -3 7 -15 4 -26z m-1328 -55
c53 -20 81 -35 68 -36 -13 -1 -29 -2 -35 -2 -37 -3 -115 16 -150 35 -33 19
-36 23 -21 29 31 13 45 10 138 -26z m-59 -54 c23 -10 55 -22 72 -26 17 -3 33
-13 36 -20 3 -9 12 -12 22 -8 12 4 15 3 10 -5 -9 -15 -33 -15 -38 0 -2 6 -26
13 -54 15 -60 5 -138 29 -154 49 -19 21 55 18 106 -5z m811 -6 c-4 -8 -11 -15
-17 -15 -7 0 -7 6 0 21 13 23 26 19 17 -6z m-630 -27 c-3 -8 -6 -5 -6 6 -1 11
2 17 5 13 3 -3 4 -12 1 -19z m899 -29 c-18 -41 -21 -29 -4 18 7 19 14 30 16
25 1 -4 -4 -24 -12 -43z m-429 19 c-3 -8 -6 -5 -6 6 -1 11 2 17 5 13 3 -3 4
-12 1 -19z m560 -10 c-3 -8 -6 -5 -6 6 -1 11 2 17 5 13 3 -3 4 -12 1 -19z
m-1203 -12 c43 -8 81 -18 84 -21 3 -3 -22 -5 -56 -5 -42 0 -77 7 -107 21 -49
23 -58 34 -22 26 12 -3 58 -12 101 -21z m173 -8 c-3 -8 -6 -5 -6 6 -1 11 2 17
5 13 3 -3 4 -12 1 -19z m1030 -45 c-3 -10 -5 -2 -5 17 0 19 2 27 5 18 2 -10 2
-26 0 -35z m-456 10 c-12 -20 -14 -14 -5 12 4 9 9 14 11 11 3 -2 0 -13 -6 -23z
m-1201 13 c0 -3 -4 -8 -10 -11 -5 -3 -10 -1 -10 4 0 6 5 11 10 11 6 0 10 -2
10 -4z m70 -21 c13 -14 22 -27 19 -29 -2 -1 -16 10 -31 25 -15 16 -24 29 -19
29 4 0 18 -11 31 -25z m557 -17 c-3 -7 -5 -2 -5 12 0 14 2 19 5 13 2 -7 2 -19
0 -25z m380 0 c-3 -8 -6 -5 -6 6 -1 11 2 17 5 13 3 -3 4 -12 1 -19z m254 -196
c-7 -2 -20 -12 -29 -22 -9 -9 -35 -29 -58 -43 l-41 -25 -57 76 c-31 42 -56 82
-56 89 0 13 41 56 47 49 2 -2 -4 -20 -14 -40 -17 -36 -17 -37 9 -63 15 -14 37
-25 52 -25 34 0 69 30 63 54 -3 10 -1 18 4 18 14 0 11 17 -7 34 -10 10 -13 24
-9 37 5 14 10 18 14 10 10 -15 57 21 68 52 5 15 10 -13 17 -88 7 -82 6 -110
-3 -113z m-1091 193 c0 -8 -2 -15 -4 -15 -2 0 -6 7 -10 15 -3 8 -1 15 4 15 6
0 10 -7 10 -15z m-209 -18 c-10 -9 -11 -8 -5 6 3 10 9 15 12 12 3 -3 0 -11 -7
-18z m271 3 c18 -11 29 -20 23 -20 -5 0 -23 9 -40 20 -39 26 -25 26 17 0z
m-510 -12 c-7 -7 -12 -8 -12 -2 0 14 12 26 19 19 2 -3 -1 -11 -7 -17z m458
-55 c0 -8 -80 52 -80 60 0 4 18 -7 40 -24 22 -18 40 -34 40 -36z m1477 35 c-3
-8 -6 -5 -6 6 -1 11 2 17 5 13 3 -3 4 -12 1 -19z m-1312 -33 c11 -9 2 -7 -20
6 -22 12 -44 26 -50 32 -16 15 48 -20 70 -38z m1152 13 c-3 -8 -6 -5 -6 6 -1
11 2 17 5 13 3 -3 4 -12 1 -19z m-1102 -48 c10 -11 16 -20 13 -20 -3 0 -13 9
-23 20 -10 11 -16 20 -13 20 3 0 13 -9 23 -20z m1272 -42 c-3 -8 -6 -5 -6 6
-1 11 2 17 5 13 3 -3 4 -12 1 -19z m-1233 -4 c3 -8 2 -12 -4 -9 -6 3 -10 10
-10 16 0 14 7 11 14 -7z m1196 -37 c0 -5 -4 -5 -10 -2 -5 3 -10 14 -10 23 0
15 2 15 10 2 5 -8 10 -19 10 -23z m-929 -4 c13 -16 12 -17 -3 -4 -17 13 -22
21 -14 21 2 0 10 -8 17 -17z m360 -10 c13 -16 12 -17 -3 -4 -17 13 -22 21 -14
21 2 0 10 -8 17 -17z m-316 -63 c3 -5 1 -10 -4 -10 -6 0 -11 5 -11 10 0 6 2
10 4 10 3 0 8 -4 11 -10z m-895 -90 c6 -11 8 -20 6 -20 -3 0 -10 9 -16 20 -6
11 -8 20 -6 20 3 0 10 -9 16 -20z m1523 -248 c14 -35 40 -87 58 -115 28 -46
29 -50 7 -29 -20 18 -33 21 -72 18 -31 -3 -53 -12 -64 -25 -9 -11 -30 -23 -47
-27 -27 -7 -29 -6 -16 9 16 20 11 21 -22 6 -13 -6 -29 -26 -36 -45 -7 -19 -17
-34 -22 -34 -6 0 -7 -9 -3 -22 6 -21 6 -21 -10 -5 -10 9 -21 17 -26 17 -14 0
-21 143 -10 215 22 139 38 220 39 198 1 -26 11 -29 29 -11 7 7 28 13 47 14 30
1 33 -1 22 -14 -10 -12 -6 -12 21 2 24 12 32 24 33 44 0 16 10 -7 23 -53 12
-44 34 -108 49 -143z m-1464 164 c-2 -2 -13 8 -23 22 l-19 27 24 -22 c12 -12
21 -24 18 -27z m782 -77 c34 -68 36 -76 12 -51 -21 21 -83 108 -83 115 0 3 9
3 21 0 12 -3 32 -29 50 -64z m-1294 -11 c-3 -8 -6 -5 -6 6 -1 11 2 17 5 13 3
-3 4 -12 1 -19z m1183 -13 c14 -19 14 -19 -2 -6 -10 7 -18 18 -18 24 0 6 1 8
3 6 1 -2 9 -13 17 -24z m-1413 -7 c-3 -8 -6 -5 -6 6 -1 11 2 17 5 13 3 -3 4
-12 1 -19z m1504 -25 c13 -16 12 -17 -3 -4 -17 13 -22 21 -14 21 2 0 10 -8 17
-17z m-1161 -168 c13 -14 21 -25 18 -25 -2 0 -15 11 -28 25 -13 14 -21 25 -18
25 2 0 15 -11 28 -25z m1620 -139 c0 -3 -4 -8 -10 -11 -5 -3 -10 -1 -10 4 0 6
5 11 10 11 6 0 10 -2 10 -4z"/>
<path d="M1416 2562 c-3 -5 1 -9 9 -9 8 0 12 4 9 9 -3 4 -7 8 -9 8 -2 0 -6 -4
-9 -8z"/>
<path d="M373 2213 c9 -2 25 -2 35 0 9 3 1 5 -18 5 -19 0 -27 -2 -17 -5z"/>
<path d="M1865 2445 c-30 -30 -30 -31 -9 -39 12 -5 15 -2 10 11 -6 15 -4 15
14 -2 12 -11 20 -13 20 -6 0 7 7 19 15 27 8 9 15 20 15 25 0 18 -40 8 -65 -16z"/>
<path d="M1807 2382 c-10 -10 -14 -22 -10 -26 4 -4 -1 -4 -11 0 -14 5 -17 4
-12 -4 9 -15 46 -16 46 -2 0 6 5 10 11 10 5 0 7 -5 3 -11 -3 -6 6 -3 20 6 28
19 26 28 -10 39 -13 4 -26 0 -37 -12z m37 0 c2 -4 -4 -8 -14 -8 -10 0 -16 4
-14 8 3 4 9 8 14 8 5 0 11 -4 14 -8z"/>
<path d="M1469 2381 c-13 -11 -22 -22 -19 -24 3 -3 16 5 29 19 28 29 22 31
-10 5z"/>
<path d="M1200 2150 c-9 -6 -10 -10 -3 -10 6 0 15 5 18 10 8 12 4 12 -15 0z"/>
<path d="M1439 1858 c7 -9 10 -22 6 -28 -4 -6 -2 -17 5 -25 6 -7 16 -26 21
-42 8 -26 8 -25 4 7 -3 19 -7 43 -8 53 -2 10 -12 25 -22 35 -18 16 -18 16 -6
0z"/>
<path d="M1260 1785 c14 -16 27 -33 30 -37 3 -4 6 5 6 20 1 15 -1 21 -3 14 -4
-10 -12 -7 -32 10 l-26 23 25 -30z"/>
<path d="M2220 465 c-8 -9 -8 -15 -2 -15 12 0 26 19 19 26 -2 2 -10 -2 -17
-11z"/>
<path d="M672 2793 c2 -4 9 -19 15 -33 5 -14 22 -50 37 -80 l27 -55 -3 85 -3
85 -39 3 c-21 2 -36 0 -34 -5z"/>
<path d="M795 2771 c8 -16 19 -31 25 -33 6 -2 14 -23 17 -46 6 -43 23 -69 23
-35 0 14 2 15 9 5 6 -9 12 0 20 32 12 49 31 70 31 35 0 -21 2 -20 25 11 41 56
37 60 -70 60 l-96 0 16 -29z"/>
<path d="M2776 975 c-20 -30 -42 -35 -26 -5 6 11 7 20 1 20 -11 0 -25 -30 -22
-47 2 -12 -12 -18 -32 -14 -5 1 -42 -14 -84 -34 -41 -19 -85 -35 -96 -35 -39
-1 -92 -33 -95 -58 -3 -21 -1 -23 20 -17 13 4 37 16 54 26 37 22 56 25 28 4
-27 -20 -16 -19 61 10 50 19 71 23 80 15 10 -8 25 -8 49 -2 28 8 34 7 29 -4
-6 -17 -1 -17 32 -2 24 11 25 15 25 90 0 43 -2 78 -4 78 -2 0 -11 -11 -20 -25z"/>
<path d="M1727 692 c-26 -26 -45 -51 -42 -54 8 -8 36 2 31 11 -2 3 7 7 21 8
14 0 28 5 32 10 8 11 34 10 44 -2 6 -7 7 -7 5 0 -25 62 -31 75 -36 75 -4 -1
-29 -22 -55 -48z"/>
<path d="M1532 522 c-55 -50 -67 -82 -31 -82 33 0 92 38 111 70 15 27 15 30
-1 44 -10 9 -19 16 -22 16 -2 0 -28 -22 -57 -48z"/>
<path d="M2646 394 c-11 -30 -6 -37 14 -19 11 10 17 22 14 26 -8 14 -21 11
-28 -7z"/>
<path d="M2620 128 c-52 -23 -122 -25 -153 -3 -33 23 -93 19 -130 -8 -18 -13
-53 -32 -79 -41 -26 -10 -50 -22 -54 -27 -3 -5 -19 -16 -35 -25 -29 -15 -30
-14 -20 4 14 25 -11 24 -59 -3 l-35 -20 219 -3 218 -2 37 30 c79 67 123 100
136 100 8 0 17 5 20 10 9 15 -15 11 -65 -12z"/>
<path d="M937 32 c-28 -16 -43 -19 -52 -12 -9 7 -16 6 -25 -5 -11 -13 4 -15
129 -15 138 0 141 1 131 20 -6 11 -18 24 -28 29 -31 16 -112 8 -155 -17z"/>
<path d="M890 39 c0 -5 5 -7 10 -4 6 3 10 8 10 11 0 2 -4 4 -10 4 -5 0 -10 -5
-10 -11z"/>
</g>
</svg>
